<?xml version="1.0" encoding="utf-8"?>
<!-- Generator: Adobe Illustrator 24.1.1, SVG Export Plug-In . SVG Version: 6.00 Build 0)  -->
<svg version="1.1" id="_x2018_лой_x5F_1" xmlns="http://www.w3.org/2000/svg" xmlns:xlink="http://www.w3.org/1999/xlink"
	 x="0px" y="0px" viewBox="0 0 2800 2000" style="enable-background:new 0 0 2800 2000;" xml:space="preserve">
<style type="text/css">
	.st0{fill:#EBF3FA;}
	.st1{fill:#CDE0FB;}
	.st2{fill:#DFEBFD;}
	.st3{fill:#F78248;}
	.st4{fill:#EA642F;}
	.st5{fill:#FFEDDC;}
	.st6{opacity:0.7;}
	.st7{fill:#7999E2;}
	.st8{fill:#AEC3FF;}
	.st9{fill:#233862;}
	.st10{fill:#FFB27D;}
	.st11{fill:#2B478B;}
	.st12{fill:#ED975D;}
	.st13{fill:#95B3EF;}
	.st14{fill:#F99746;}
	.st15{fill:#ED7D2B;}
	.st16{fill:#FFFFFF;}
	.st17{fill:#1B3770;}
	.st18{fill:#E8C2A3;}
	.st19{fill:#ED985F;}
	.st20{fill:#1E3D7C;}
	.st21{fill:#FCECDB;}
	.st22{fill:#EAC5A4;}
	.st23{fill:#EFDECE;}
	.st24{fill:#EF873A;}
	.st25{fill:#A6C7ED;}
	.st26{fill:#E3F0FF;}
	.st27{fill:#2E3552;}
	.st28{fill:#1C3D72;}
	.st29{fill:#AFCDFB;}
	.st30{fill:#FCA56B;}
	.st31{fill:#163560;}
	.st32{fill:#1F4D84;}
	.st33{opacity:0.5;}
	.st34{fill:#B3CFF9;}
	.st35{fill:#699DEE;}
	.st36{fill:#4B87DD;}
</style>
<g>
	<path class="st0" d="M296.01,1809.47c0,0-174.9-220.27-62.37-533.81c94.78-264.08,365.41-94.33,291.3-428.17
		c-67.23-302.83,1.18-565.29,626.18-701.93C1554.54,57.36,2184,27.01,2042.75,694.5c-50.29,237.64,756.61,40.09,418.31,1114.97
		H296.01z"/>
	<path class="st1" d="M2045.9,1511.97c-10.79-58.75-109.23-48.86-109.23-48.86s-74.19,95.08-93.54,95.88
		c-19.35,0.8,47.56-93.67,47.56-93.67c-36.81-6.68-135.15,30.95-135.15,30.95s-3.77,117.8-22.72,113.82
		c-18.95-3.99,8.66-104.14,8.66-104.14c-36.81,7.79-73.8,46.9-73.8,46.9c-47.57,64.75,38.03,122.48,38.03,122.48
		s-2.19,40.8-31.2,85.39l0,0c0,0-6.39,8.15-13.37,22.32l9.79,0.81c1.02-2.56,2.11-5.02,3.29-7.38c0-0.02,0.01-0.03,0.02-0.04
		c0.02-0.03,0.04-0.07,0.05-0.1c0.8-1.46,1.94-3.53,3.36-6.05c0,0,0-0.01,0.01-0.01c0-0.01,0.01-0.01,0.01-0.01
		c3.48-5.61,5.86-9.76,7.4-12.78c0-0.01,0.01-0.02,0.01-0.03c10.49-17.63,25.39-40.51,34.42-44.82c0,0-0.96-1.61-1.72-4.66
		c0.55,1.49,1.12,3.04,1.72,4.66c13.77,37.3,97.07,50.25,144.54,44.56c47.48-5.7,28.22-20.55,4.86-44.01
		c-23.36-23.46-76.5-22.2-91.36-31.88c-14.86-9.67,8.58-16.16,39.5-11.18c30.92,4.98,43.9,37.4,93.77,46.36
		c49.88,8.97,96.04-82.41,96.04-82.41c-35.61,7.89-96.26-16.44-97.66-28.61c-1.4-12.17,90.67-3.31,105.33-5.71
		C2029.16,1597.36,2056.68,1570.72,2045.9,1511.97z"/>
	<path class="st1" d="M302.73,1672.4c-46.34-70.34,63.56-156.32,63.56-156.32s168.31,24.42,188.79,6.35
		c20.49-18.06-139.82-48.97-139.82-48.97c30.97-42.71,167.81-100.35,167.81-100.35s118.77,116.27,134.18,93.72
		c15.41-22.55-110.42-97.59-110.42-97.59c45.07-27.98,120.9-24.26,120.9-24.26c111.6,19.51,80.78,161.82,80.78,161.82
		s42.03,39.41,115.09,56.5h0c0,0,14.46,2.06,35.39,9.68l-9.17,10.38c-3.53-1.61-7.05-3.06-10.55-4.3c-0.02-0.02-0.04-0.02-0.06-0.02
		c-0.05-0.02-0.1-0.04-0.15-0.05c-2.23-0.71-5.42-1.7-9.32-2.89c-0.01,0-0.01,0-0.02,0c-0.01-0.01-0.01,0-0.02,0
		c-9.01-2.32-15.49-4.23-20-5.8c-0.01,0-0.03-0.01-0.04-0.02c-27.89-7.72-128.57,133.82-182.47,174.35
		c-53.9,40.53-48.79,6.61-47.9-40.07c0.9-46.68,56.22-97.25,61.92-121.6c5.7-24.35-24.5-8.09-51.12,27.15
		c-26.63,35.24-8.21,80.91-50.24,138.7c-42.03,57.79-178.2,9.8-178.2,9.8c43.95-26.71,81.97-110.66,71.52-124.41
		c-10.45-13.75-95.55,85.1-112.82,96.96C403.09,1743.01,349.07,1742.74,302.73,1672.4z"/>
	<g>
		<path class="st1" d="M1697.97,912.31c0,0,95.07-193.84,148.24-176.63C1899.38,752.88,1697.97,912.31,1697.97,912.31z"/>
		<path class="st1" d="M1629.6,1000.01c0,0,227.73-223.22,316.23-182.52c88.5,40.71-53.94,84.36-108.27,96.25
			C1783.23,925.64,1629.6,1000.01,1629.6,1000.01z"/>
	</g>
	<g>
		<path class="st2" d="M930.58,957.32c0,0-95.07-193.84-148.24-176.63C729.16,797.89,930.58,957.32,930.58,957.32z"/>
		<path class="st2" d="M998.95,1045.02c0,0-227.73-223.22-316.23-182.52c-88.5,40.71,53.94,84.36,108.27,96.25
			C845.32,970.65,998.95,1045.02,998.95,1045.02z"/>
	</g>
	<path class="st2" d="M756.45,446.8c32.52-72.64,156.84-28.73,156.84-28.73s66.01,146.52,90.8,153.67
		c24.8,7.15-31.97-136.29-31.97-136.29c49.76,2.99,165.18,82.77,165.18,82.77s-32.34,153.69-6.55,154.52
		c25.79,0.83,21.7-137.54,21.7-137.54c45.19,21.71,80.72,84.03,80.72,84.03c41.12,98.84-87.93,146.54-87.93,146.54
		s-10.06,53.5,13.42,120.4l0,0c0,0,5.7,12.57,10.26,33.12l-12.93-2.04c-0.51-3.63-1.14-7.17-1.93-10.59c0-0.03,0-0.04-0.02-0.06
		c-0.01-0.05-0.02-0.1-0.03-0.15c-0.57-2.14-1.4-5.18-2.44-8.9c0,0,0-0.01,0-0.01c0-0.01-0.01-0.01-0.01-0.02
		c-2.73-8.36-4.5-14.49-5.54-18.88c0-0.01-0.01-0.03-0.01-0.04c-8.01-26.14-20.07-60.46-30.4-68.89c0,0,1.75-1.79,3.7-5.49
		c-1.18,1.75-2.41,3.58-3.7,5.49c-29.61,43.94-141.53,34.39-201.19,12.01c-59.66-22.37-30.04-35.52,7.61-58.51
		c37.65-22.99,106.04-4.58,128.34-12.4c22.3-7.82-6-23.63-47.6-26.95c-41.6-3.32-68.64,34.54-136.04,30.39
		c-67.4-4.15-98.29-137.03-98.29-137.03c43.6,21.46,129.8,9.13,135.46-6.18c5.66-15.31-116.33-32.93-134.55-40.67
		C751.15,562.62,723.93,519.44,756.45,446.8z"/>
	<path class="st3" d="M1762.85,702.27v1085.38c0,10.52-8.53,19.06-19.06,19.06H907.35c-10.53,0-19.07-8.54-19.07-19.06V702.27
		c0-10.53,8.54-19.06,19.07-19.06h836.44C1754.32,683.21,1762.85,691.74,1762.85,702.27z"/>
	<path class="st4" d="M978.48,683.21v1123.5h-71.13c-10.53,0-19.07-8.54-19.07-19.06V702.27c0-10.53,8.54-19.06,19.07-19.06H978.48z
		"/>
	<g>
		<g>
			<path class="st5" d="M1243.07,994.35v-38.49h14.82v38.1c0,10.97,5.48,16.65,14.53,16.65c9.04,0,14.53-5.48,14.53-16.16v-38.58
				h14.82v38.01c0,20.4-11.45,30.4-29.54,30.4C1254.13,1024.28,1243.07,1014.17,1243.07,994.35z"/>
			<path class="st5" d="M1312.24,1013.4l8.76-10.49c6.06,5,12.41,8.18,20.11,8.18c6.06,0,9.72-2.41,9.72-6.54
				c0-3.75-2.31-5.68-13.57-8.56c-13.57-3.46-22.32-7.22-22.32-20.78c0-12.22,9.81-20.3,23.57-20.3c9.81,0,18.18,3.08,25.02,8.56
				l-7.7,11.16c-5.96-4.14-11.83-6.64-17.51-6.64c-5.68,0-8.66,2.6-8.66,6.06c0,4.43,2.89,5.87,14.53,8.85
				c13.66,3.56,21.36,8.47,21.36,20.4c0,13.37-10.2,20.88-24.73,20.88C1330.62,1024.18,1320.33,1020.62,1312.24,1013.4z"/>
			<path class="st5" d="M1378.44,955.87h50.8v13.18h-36.08v13.66h31.75v13.18h-31.75v14.14h36.56v13.18h-51.28V955.87z"/>
			<path class="st5" d="M1442.9,955.87h30.79c8.56,0,15.2,2.41,19.63,6.83c3.75,3.75,5.77,9.04,5.77,15.59
				c0,10.87-5.87,17.7-14.43,20.88l16.45,24.05h-17.32l-14.63-21.55h-11.45v21.55h-14.82V955.87z M1472.72,988.58
				c7.22,0,11.35-3.85,11.35-9.72c0-6.35-4.42-9.62-11.64-9.62h-14.72v19.34H1472.72z"/>
		</g>
		<g>
			<path class="st5" d="M1156.96,1056.98h15.97l17.7,28.48l17.7-28.48h15.97v67.35h-14.72v-43.97l-18.95,28.77h-0.39l-18.76-28.48
				v43.68h-14.53V1056.98z"/>
			<path class="st5" d="M1263.56,1056.5h13.66l28.86,67.83h-15.49l-6.16-15.11h-28.48l-6.16,15.11h-15.11L1263.56,1056.5z
				 M1279.15,1096.14l-8.95-21.84l-8.95,21.84H1279.15z"/>
			<path class="st5" d="M1316.48,1056.98h13.66l31.56,41.47v-41.47h14.63v67.35h-12.6l-32.62-42.82v42.82h-14.63V1056.98z"/>
			<path class="st5" d="M1391.42,1095.47v-38.49h14.82v38.1c0,10.97,5.49,16.65,14.53,16.65s14.53-5.49,14.53-16.17v-38.58h14.82v38
				c0,20.4-11.45,30.4-29.54,30.4S1391.42,1115.29,1391.42,1095.47z"/>
			<path class="st5" d="M1485.9,1056.5h13.66l28.86,67.83h-15.49l-6.16-15.11h-28.48l-6.16,15.11h-15.11L1485.9,1056.5z
				 M1501.49,1096.14l-8.95-21.84l-8.95,21.84H1501.49z"/>
			<path class="st5" d="M1538.82,1056.98h14.82v53.88h33.58v13.47h-48.4V1056.98z"/>
		</g>
	</g>
	<g>
		<g class="st6">
			<path class="st4" d="M1176.75,1397.2l15.29-8.43c1.28-0.69,2.84-0.6,4.03,0.22c1.52,1.06,3.1,2.06,4.73,3
				c3.04,1.76,6.13,3.26,9.28,4.47c1.48,0.57,2.46,1.95,2.48,3.52l0.34,18.25c0.02,1.95,1.55,3.56,3.52,3.69l16.65,1.13
				c1.89,0.12,3.55-1.18,3.89-3.03l2.95-16.55c0.25-1.62,1.57-2.86,3.24-3.08c7.04-0.95,13.92-3.02,20.37-6.14
				c1.56-0.75,3.47-0.33,4.58,1l6.56,7.84c1.26,1.48,3.44,1.81,5.08,0.74l13.75-9.24c0.28-0.19,0.54-0.39,0.75-0.65
				c1.04-1.16,1.26-2.9,0.47-4.31l-6.29-11.43l-1.54-2.78c1.92-2.44,3.7-5.06,5.29-7.81c2.15-3.71,3.91-7.56,5.27-11.44
				c0.53-1.48,1.89-2.5,3.46-2.51l14.7-0.26c2.01-0.05,3.66-1.6,3.78-3.6l0.87-12.73l0.24-3.65c0.14-1.99-1.25-3.78-3.21-4.12
				l-13.83-2.47c-1.61-0.27-2.86-1.52-3.09-3.11c-0.76-4.73-2.02-9.38-3.76-13.82c-0.12-0.4-0.27-0.75-0.43-1.13
				c-0.06-0.12-0.1-0.25-0.13-0.38c-0.45-1.47,0.05-3.05,1.24-4.04l12.71-10.67c0.15-0.11,0.28-0.26,0.4-0.39
				c1.14-1.28,1.29-3.22,0.33-4.68l-9.19-13.72c-1.11-1.66-3.29-2.19-5.06-1.23l-15.95,8.8c-1.34,0.76-3.01,0.59-4.2-0.38
				c-2.65-2.13-5.5-4.08-8.55-5.85c-1.62-0.94-3.25-1.8-4.91-2.58c-1.34-0.65-2.22-1.99-2.24-3.47l-0.33-17.54
				c-0.03-1.93-1.54-3.54-3.49-3.67l-16.47-1.1c-1.99-0.14-3.77,1.23-4.13,3.22l-2.33,13.09c-0.31,1.76-1.77,3.05-3.53,3.17
				c-6.95,0.4-13.79,1.91-20.27,4.41c-1.52,0.62-3.29,0.17-4.35-1.11l-9.62-11.46c-1.29-1.54-3.53-1.85-5.21-0.74l-13.68,9.15
				c-1.65,1.1-2.16,3.28-1.21,4.98l0.36,0.67l7.31,13.28c0.78,1.42,0.6,3.14-0.45,4.39l-0.01,0.02c-2.51,2.97-4.8,6.21-6.82,9.7
				c-1.08,1.86-2.04,3.75-2.93,5.68c-0.6,1.35-1.92,2.21-3.39,2.24l-14.92,0.26c-2.04,0.03-3.72,1.63-3.85,3.65l-1.1,16.4
				c-0.03,0.47,0.04,0.92,0.15,1.34c0.4,1.36,1.56,2.44,3.01,2.71l11.05,1.95c1.35,0.25,2.47,1.21,2.93,2.47
				c0.12,0.33,0.2,0.69,0.23,1.06c0.57,8.91,2.91,17.6,6.89,25.61c0.69,1.35,0.46,2.97-0.49,4.12c-0.14,0.16-0.29,0.31-0.46,0.46
				l-10.3,8.64c-1.49,1.25-1.81,3.42-0.73,5.06l0.21,0.32l8.94,13.39C1172.77,1397.65,1174.97,1398.17,1176.75,1397.2z
				 M1260.54,1309.25c1.86,1.91,3.63,4.08,5.24,6.51c3.06,4.64,5.33,13.01,4.96,18.57c-0.04,0.59-0.09,1.18-0.14,1.77
				c-3.66,35.62-47.19,46.82-67.55,16.75c-2.65-3.94-4.69-10.42-5.14-15.85c-0.09-1.26-0.11-2.47-0.02-3.54
				c0.37-5.05,1.52-9.62,3.3-13.7C1211.38,1296.54,1241.8,1290.19,1260.54,1309.25z"/>
		</g>
		<g>
			<path class="st5" d="M1329.5,1276.96l9.57-3.25c0.8-0.26,1.68-0.06,2.28,0.54c0.76,0.76,1.56,1.49,2.39,2.19
				c1.55,1.31,3.16,2.48,4.84,3.49c0.78,0.47,1.2,1.36,1.05,2.26l-1.66,10.43c-0.19,1.11,0.52,2.19,1.63,2.46l9.37,2.33
				c1.06,0.26,2.14-0.31,2.52-1.33l3.36-9.13c0.31-0.89,1.18-1.47,2.16-1.43c4.11,0.17,8.24-0.31,12.23-1.43
				c0.96-0.27,2.01,0.17,2.51,1.03l2.94,5.14c0.57,0.97,1.78,1.38,2.82,0.93l8.77-3.87c0.18-0.08,0.35-0.17,0.49-0.29
				c0.71-0.55,1.01-1.53,0.7-2.41l-2.42-7.15l-0.59-1.74c1.34-1.19,2.62-2.51,3.81-3.92c1.6-1.9,2.99-3.91,4.17-5.98
				c0.45-0.79,1.33-1.23,2.22-1.08l8.4,1.34c1.15,0.18,2.25-0.54,2.52-1.67l1.79-7.17l0.51-2.05c0.28-1.12-0.33-2.28-1.41-2.67
				l-7.63-2.81c-0.89-0.32-1.48-1.16-1.45-2.08c0.05-2.77-0.2-5.55-0.74-8.26c-0.03-0.24-0.08-0.46-0.13-0.69
				c-0.02-0.08-0.03-0.15-0.04-0.23c-0.11-0.88,0.34-1.73,1.12-2.18l8.33-4.79c0.1-0.05,0.19-0.12,0.27-0.18
				c0.78-0.61,1.06-1.7,0.66-2.63l-3.84-8.75c-0.46-1.06-1.65-1.58-2.76-1.21l-9.98,3.4c-0.84,0.3-1.77,0.03-2.36-0.65
				c-1.29-1.48-2.72-2.88-4.28-4.2c-0.83-0.7-1.67-1.35-2.54-1.97c-0.7-0.5-1.06-1.36-0.92-2.21l1.59-10.03
				c0.18-1.1-0.52-2.17-1.62-2.45l-9.27-2.3c-1.12-0.28-2.27,0.32-2.68,1.42l-2.66,7.22c-0.36,0.97-1.32,1.56-2.33,1.45
				c-4-0.47-8.05-0.31-12,0.46c-0.93,0.2-1.89-0.24-2.37-1.07l-4.32-7.51c-0.58-1.01-1.83-1.41-2.89-0.95l-8.72,3.82
				c-1.05,0.46-1.57,1.65-1.19,2.72l0.14,0.42l2.82,8.31c0.3,0.89,0.02,1.85-0.7,2.45l-0.01,0.01c-1.73,1.44-3.37,3.05-4.87,4.84
				c-0.8,0.95-1.54,1.93-2.25,2.94c-0.48,0.71-1.32,1.07-2.16,0.93l-8.53-1.37c-1.17-0.19-2.29,0.55-2.56,1.69l-2.29,9.23
				c-0.06,0.26-0.07,0.53-0.05,0.78c0.09,0.81,0.64,1.55,1.44,1.85l6.1,2.23c0.74,0.28,1.29,0.94,1.42,1.7
				c0.03,0.2,0.04,0.41,0.02,0.62c-0.58,5.14-0.13,10.33,1.33,15.29c0.26,0.84-0.04,1.74-0.7,2.3c-0.09,0.08-0.2,0.15-0.31,0.21
				l-6.75,3.88c-0.98,0.56-1.38,1.77-0.93,2.81l0.09,0.2l3.74,8.54C1327.18,1276.81,1328.39,1277.33,1329.5,1276.96z
				 M1386.17,1235.34c0.87,1.28,1.65,2.69,2.32,4.24c1.28,2.95,1.72,7.96,0.94,11.08c-0.08,0.34-0.17,0.66-0.26,0.99
				c-5.7,19.92-31.64,21.89-40.19,2.69c-1.11-2.51-1.62-6.41-1.32-9.55c0.08-0.73,0.19-1.42,0.35-2.02
				c0.72-2.84,1.84-5.33,3.27-7.47C1359.44,1223.12,1377.42,1222.58,1386.17,1235.34z"/>
		</g>
		<g>
			<path class="st4" d="M1357.57,1532.12l24.81-12.05c2.08-0.98,4.52-0.72,6.34,0.68c2.32,1.79,4.72,3.5,7.22,5.12
				c4.64,3.02,9.4,5.64,14.27,7.8c2.28,1.02,3.72,3.28,3.62,5.76l-0.95,28.81c-0.13,3.07,2.15,5.74,5.25,6.11l26.16,3.15
				c2.97,0.35,5.69-1.58,6.38-4.47l6-25.85c0.53-2.53,2.7-4.38,5.35-4.6c11.18-0.92,22.2-3.63,32.63-8.01
				c2.52-1.06,5.5-0.23,7.13,1.94l9.7,12.91c1.86,2.43,5.28,3.14,7.95,1.58l22.45-13.44c0.46-0.27,0.88-0.58,1.23-0.96
				c1.74-1.74,2.23-4.48,1.09-6.76l-8.98-18.54l-2.2-4.51c3.22-3.69,6.24-7.68,8.98-11.89c3.69-5.68,6.78-11.6,9.25-17.6
				c0.95-2.29,3.18-3.78,5.66-3.68l23.21,0.79c3.17,0.09,5.9-2.23,6.25-5.37l2.41-20l0.67-5.73c0.38-3.13-1.66-6.07-4.72-6.76
				l-21.6-5.03c-2.51-0.55-4.39-2.64-4.62-5.15c-0.81-7.53-2.41-14.95-4.8-22.1c-0.16-0.64-0.37-1.21-0.58-1.81
				c-0.09-0.2-0.13-0.41-0.17-0.62c-0.59-2.35,0.33-4.81,2.28-6.27l20.92-15.8c0.25-0.16,0.46-0.38,0.66-0.58
				c1.9-1.93,2.3-4.97,0.9-7.35l-13.37-22.4c-1.62-2.7-5.01-3.72-7.87-2.35l-25.87,12.58c-2.18,1.09-4.79,0.69-6.6-0.95
				c-4-3.57-8.34-6.89-13-9.92c-2.47-1.61-4.99-3.1-7.54-4.47c-2.07-1.13-3.34-3.32-3.25-5.66l0.91-27.69
				c0.11-3.05-2.15-5.7-5.21-6.07l-25.89-3.08c-3.13-0.38-6.05,1.63-6.78,4.75l-4.75,20.46c-0.64,2.75-3.03,4.67-5.83,4.72
				c-10.99,0.07-21.9,1.89-32.33,5.3c-2.45,0.85-5.2,0-6.78-2.11l-14.23-18.86c-1.91-2.53-5.42-3.2-8.15-1.6l-22.32,13.31
				c-2.69,1.59-3.68,5-2.31,7.76l0.51,1.09l10.45,21.54c1.12,2.31,0.69,5.01-1.06,6.88l-0.02,0.02c-4.2,4.48-8.08,9.39-11.55,14.74
				c-1.85,2.85-3.52,5.75-5.09,8.72c-1.06,2.07-3.21,3.33-5.53,3.26l-23.56-0.81c-3.22-0.12-6,2.27-6.37,5.44l-3.08,25.78
				c-0.08,0.74-0.02,1.46,0.13,2.13c0.53,2.17,2.26,3.98,4.53,4.52l17.27,3.97c2.11,0.51,3.8,2.11,4.42,4.13
				c0.16,0.53,0.25,1.1,0.27,1.68c0.17,14.1,3.16,28,8.78,40.95c0.99,2.18,0.48,4.73-1.11,6.46c-0.23,0.24-0.49,0.47-0.77,0.68
				l-16.95,12.78c-2.46,1.85-3.13,5.25-1.56,7.92l0.31,0.52l13.01,21.84C1351.25,1532.51,1354.69,1533.52,1357.57,1532.12z
				 M1496.9,1400.26c2.78,3.17,5.39,6.73,7.73,10.69c4.45,7.56,7.34,20.96,6.3,29.68c-0.11,0.94-0.24,1.86-0.37,2.78
				c-8.67,55.88-78.24,69.99-107.89,20.9c-3.86-6.42-6.55-16.82-6.81-25.42c-0.03-1.99,0.02-3.9,0.25-5.58
				c0.99-7.93,3.18-15.05,6.33-21.33C1420.4,1376.22,1468.9,1368.68,1496.9,1400.26z"/>
		</g>
	</g>
	<path class="st7" d="M1011.5,661.82c0,0-22.39-0.48-23.15,21.4h47.06c0,0,4.93-16.32,19.36-10.7v-10.7L1011.5,661.82z"/>
	<path class="st8" d="M1011.5,661.82c0,0,39.85,3.8,41.37,37.96c1.52,34.16,0,102.48,0,102.48l30.36-11.39l24.29,11.39v-104
		c0,0-2.28-31.12-34.92-36.44H1011.5z"/>
	<g>
		<path class="st9" d="M1611.14,683.26h-83.84c-5.81-4.08-16.75-12.99-27.15-28.18c-2-2.92-3.97-6.06-5.89-9.45
			C1483.51,626.59,1583.01,670.56,1611.14,683.26z"/>
		<g>
			<path class="st10" d="M1559.45,869.79c2.25,2.61,2.52,5.51,1.37,8.6c0,0.01-0.01,0.03-0.02,0.04
				c-2.11,5.71-9.01,12.06-17.01,18.4c-1.02,0.81-1.93,1.55-2.72,2.24c-0.21,0.18-0.42,0.36-0.61,0.54
				c-0.16,0.14-0.32,0.29-0.47,0.42c-7.47,6.79-4.69,8.37-18.11,22.16c-15.31,15.71-25.77,15.92-28.74,14.45
				c-2.51-1.25,2.67-9.6,8.4-18.98c0.28-0.45,0.55-0.91,0.83-1.37c0.76-1.25,1.52-2.51,2.28-3.77c6.72-11.3,5.05-16.63,3.6-33.53
				c-1.18-13.73-20.8-76.8-20.8-76.8l29.16-4.81c0,0,8.42,50.17,18.03,57.95c5.14,4.15,10.92,4.24,15.87,7.33
				c0.35,0.21,0.69,0.43,1.03,0.66C1554.33,865.22,1557.2,867.17,1559.45,869.79z"/>
			<path class="st9" d="M1559.45,869.79c2.25,2.61,2.52,5.51,1.37,8.6c0,0.01-0.01,0.03-0.02,0.04c-2.58,5.71-9.3,12.02-17.04,18.34
				c-1.01,0.83-1.9,1.59-2.7,2.3c-0.21,0.18-0.42,0.36-0.61,0.54c-0.16,0.14-0.32,0.29-0.47,0.42c-7.47,6.79-4.69,8.37-18.11,22.16
				c-15.31,15.71-25.77,15.92-28.74,14.45c-2.51-1.25,2.67-9.6,8.4-18.98c2.97-1.06,16.75-6.55,27.23-19.77
				c9.23-11.61,15.44-26.57,21.73-35.22c0.35,0.21,0.69,0.43,1.03,0.66C1554.33,865.22,1557.2,867.17,1559.45,869.79z"/>
			<path class="st10" d="M1324.74,849.95c-1.86,8.98-14.67,7.39-28.96,3.79c-14.29-3.6-10.92,0.58-31.28-1.82
				c-20.36-2.4-26.48-10.04-27.08-13.07c-0.54-2.69,9.54-3.57,20.34-4.74c1.36-0.14,2.72-0.3,4.09-0.46
				c12.2-1.44,21.19-9.25,32.31-15.63c10.53-6.05,26.36-30.87,26.36-30.87l27.93,2.41c0,0-14.82,22.17-20.56,31.81
				c-3.38,5.67-3.25,13.2-2.88,19.02C1325.22,843.55,1325.4,846.78,1324.74,849.95z"/>
			<path class="st9" d="M1295.78,853.73c-14.29-3.6-10.92,0.58-31.28-1.82c-20.36-2.4-26.48-10.04-27.08-13.07
				c-0.54-2.69,9.54-3.57,20.34-4.74l0.1,0.21c0,0,12.16,8.75,29.12,9.28c13.82,0.43,28.49-3.42,38.04-3.2
				c0.19,3.16,0.38,6.4-0.28,9.56C1322.88,858.92,1310.08,857.33,1295.78,853.73z"/>
			<path class="st9" d="M1527.88,824.59c0,0-1.95,1.26-4.85,2.87c-3.46,1.9-8.28,4.28-12.73,5.53c-4.76,1.33-9.62,1.67-13.11,1.71
				c-3.03,0.02-5.02-0.18-5.02-0.18l-33.46-92.03l-6.05-16.64l-6.43-17.71l-2.24-6.16l-10.9-29.97c0,0,26.63-68.28,53.79-35.73
				c3.3,3.96,6.4,9.74,9.3,16.82c1.98,4.83,3.86,10.27,5.66,16.17c1.34,4.43,2.64,9.11,3.89,13.98c3.38,13.25,6.38,27.9,9,42.6
				C1523.46,774.95,1527.88,824.59,1527.88,824.59z"/>
			<path class="st11" d="M1706.58,675.17c-1.51,3.81-4.17,6.46-7.74,8.1h-123.51c-29.72-6.15-58.13-19.74-75.17-28.18
				c-1.41-0.71-2.73-1.37-3.97-1.97c-5.82-2.89-9.83-4.86-11.47-5.2c-10.33-2.15-15.63,14.67-24.38,35.36
				c-1.79,4.21-3.7,8.57-5.84,12.98c-1.53,3.14-4.4,7.21-8.27,11.91c-0.72,0.87-1.46,1.75-2.24,2.66
				c-30.03,35.07-107.33,100.38-107.33,100.38s-0.91,0-2.38-0.03c-4.73-0.09-15.27-0.52-20.31-2.46c-2.9-1.12-5.06-2.36-6.58-3.42
				c-2.22-1.58-3.13-2.81-3.13-2.81s92.5-180.86,140.4-230.13v-0.01c0.7-0.72,1.38-1.4,2.06-2.05c5.23-5.11,9.87-8.48,13.73-9.7
				c16.32-5.14,121.88,0.59,121.88,0.59l3.37-5.48l5.64-0.4l0.97-0.07l4.7-0.34h0.01l6.49-0.46l9.64-0.68l26.09-1.86l4.19-0.3
				l48.23-3.43c0,0,2.2,4.96,5.17,13.19c1.16,3.21,2.44,6.91,3.75,11.01C1709.18,599.3,1719.22,643.23,1706.58,675.17z"/>
			<path class="st9" d="M1738.55,368.38c-24.1-20.58-41.3-25.67-43.69-58.24c-1.3-17.68-25.04-76.18-65.2-71.06
				c-3.36,0.43-6.74,0.73-10.12,0.59c-4.69-0.18-12.43,0.44-20.41,5.12c-19.33,11.32-54.94,115.98-30.94,152.76
				c4.3,6.6,10.53,11.02,19.14,12.31c1.01,0.57,2.04,1.15,3.1,1.74h0.01c4.32,2.43,9.06,5.09,14.08,7.94
				c28.38,16,65.53,37.15,84.56,47.85h0.01c1.15,0.65,2.23,1.26,3.25,1.83c2.21,1.23,4.08,2.27,5.53,3.07
				c2.23,1.22,3.53,1.9,3.63,1.9c0,0,4.9,1.89,11.77,3.31c9.57,1.99,22.97,3.11,32.3-3c3.69-2.41,7.15-5.4,10.23-8.86
				C1775.13,444.06,1780.22,403.93,1738.55,368.38z"/>
			<path class="st10" d="M1619.08,392.41c-0.17,0.11,18.51,6.63,31.07,1.17c11.81-5.12,20.87-24.43,20.7-24.45
				c-5.36-0.29-11.2-5.01-15.52-35.77l-2.29,0.8l-38.45,13.53c0,0,2.69,12.33,4.41,24.06
				C1620.44,381.6,1621.18,391.03,1619.08,392.41z"/>
			<path class="st12" d="M1614.59,347.69c0,0,1.64,8.64,3.91,20.98c22.06-3.81,31.35-22.63,34.54-34.52L1614.59,347.69z"/>
			<path class="st10" d="M1608.79,359.87c0,0,52.53-6.67,47.87-39.32c-4.66-32.65-1.02-55.5-34.75-52.62
				c-33.73,2.88-38.46,16.27-39.55,27.54C1581.26,306.75,1595.01,360.76,1608.79,359.87z"/>
			<path class="st9" d="M1584.39,277.61c0,0,33.39,29.19,56.22,31.68c22.83,2.5,31.54-4.78,31.54-4.78s-13.39-11.28-21.37-29.38
				c-2.35-5.34-7.37-9.02-13.18-9.56C1621.3,264.04,1590.37,263.18,1584.39,277.61z"/>
			<path class="st9" d="M1605.41,275.17c0,0-11.31,10.79-14.91,18.82c-3.47,7.75-4.63,26.35-1.96,33.75c0,0-17.27-34.17-7.24-50.64
				C1591.93,259.63,1605.41,275.17,1605.41,275.17z"/>
			<path class="st8" d="M1574.35,469.4c0.84,106.24-0.16,84.03,11.39,94.19c2.78,2.45,10.64,3.95,21,4.71
				c32.56,2.39,89.85-2.57,92.07-8.58c7.66-20.78,2.4-27.28,8.9-59.13c0.68-3.39,1.51-7.05,2.49-11.04
				c5.38-21.86,10.52-29.28-7.77-64.6c-16.59-31.99-33.88-57.98-35.45-57.06c-44.55,26.02-47.97,3.86-47.97,3.86
				S1573.93,417.58,1574.35,469.4z"/>
			<path class="st11" d="M1527.88,824.59c0,0-1.95,1.26-4.85,2.87c-3.46,1.9-8.28,4.28-12.73,5.53c-4.76,1.33-9.62,1.67-13.11,1.71
				c-3.03,0.02-5.02-0.18-5.02-0.18l-33.46-92.03l9.8-16.64l25.1-42.6l8.23-13.98c1.34,4.43,2.64,9.11,3.89,13.98
				c3.38,13.25,6.38,27.9,9,42.6C1523.46,774.95,1527.88,824.59,1527.88,824.59z"/>
			<path class="st8" d="M1618.99,371.75c0,0-45.7,7.42-51.2,27.03c-5.5,19.62-37.86,134.94-37.86,134.94s23.18,4.33,33.97-6.31
				c10.8-10.64,38-99.2,38-99.2L1618.99,371.75z"/>
			<path class="st13" d="M1606.74,568.3c32.56,2.39,89.85-2.57,92.07-8.58c7.66-20.78,2.4-27.28,8.9-59.13l-15.4-44.35
				c0,0,2.25,49.28-12.37,62.14c-14.6,12.85-59.66,24.59-66.8,35.37C1609.69,558.92,1607.42,564.12,1606.74,568.3z"/>
			<path class="st10" d="M1644.2,547.84c0,0-32.08-7.38-37.29-4.57c-5.21,2.82-17.95,13.11-19.56,16.71
				c-1.61,3.6,11.56-2.66,15.84-3.78c2.77-0.72,10.03,1.86,13.63,3.09c15.13,5.16,24.44,2.63,24.44,2.63L1644.2,547.84z"/>
			<path class="st8" d="M1666.99,367.87c0,0,43.13,2.96,57.92,23.9c20.82,29.48,61.65,154.75,37.63,171.25
				c-27.05,18.58-122.56,4.05-122.56,4.05s-3.08-14.89,1.4-22.06c4.48-7.16,76.49-18.27,79.84-21.57
				c3.34-3.3-41.04-65.03-40.97-74.99C1680.32,438.49,1666.99,367.87,1666.99,367.87z"/>
			<path class="st10" d="M1605.29,552.21c0,0-6.79,8.64-9.01,9.66c-2.21,1.02-3.64,0.75-3.64,0.75l4.59-8.13L1605.29,552.21z"/>
			<path class="st10" d="M1606.91,543.27l-19.64,9.37c0,0,0.82,1.37,3.23,1.28c2.41-0.09,8.51-2.27,8.51-2.27L1606.91,543.27z"/>
		</g>
		<g>
			<g>
				<polygon class="st14" points="1600.47,571.04 1445.62,569.95 1399.85,453.78 1554.47,454.87 				"/>
				<polygon class="st15" points="1443.84,565.42 1648.32,566.86 1648.29,571.38 1445.62,569.95 				"/>
			</g>
			<path class="st16" d="M1485.12,512.3c-1.14-4.08,1.24-7.36,5.31-7.34c4.07,0.03,8.3,3.36,9.43,7.44
				c1.14,4.08-1.24,7.36-5.31,7.34C1490.48,519.71,1486.26,516.38,1485.12,512.3z"/>
		</g>
	</g>
	<g>
		<g>
			<path class="st11" d="M774.65,1806.71h625.63c43.52,0,78.79-35.28,78.79-78.79v-3.29c0-43.52-35.28-78.79-78.79-78.79H774.65
				c-43.52,0-78.79,35.28-78.79,78.79v3.29C695.85,1771.43,731.13,1806.71,774.65,1806.71z"/>
			<path class="st5" d="M1129.22,1704.87l-0.56,35.16c-0.5,31.1,24.32,56.72,55.42,57.22l415.81,6.64l0.11-7.01
				c-23.33-12.13-39.08-36.7-38.63-64.77l0.2-12.37c0.45-28.08,16.98-52.12,40.68-63.51l0-0.14l-415.81-6.64
				C1155.34,1648.96,1129.72,1673.77,1129.22,1704.87z"/>
			<g>
				<path class="st17" d="M1610.77,1806.71h-438.06c-28.25,0-50.39-35.36-50.39-80.49c0-45.13,22.13-80.49,50.39-80.49h438.06
					c3.64,0,6.59,2.95,6.59,6.59c0,3.64-2.95,6.59-6.59,6.59h-438.06c-20.17,0-37.21,30.83-37.21,67.32
					c0,36.49,17.04,67.32,37.21,67.32h438.06c3.64,0,6.59,2.95,6.59,6.59S1614.41,1806.71,1610.77,1806.71z"/>
			</g>
			<g>
				<rect x="1252.67" y="1688.63" class="st18" width="316.31" height="0.95"/>
			</g>
			<g>
				<rect x="1420.61" y="1703.28" class="st18" width="143.01" height="0.95"/>
			</g>
			<g>
				<rect x="1314.15" y="1753.24" class="st18" width="249.48" height="0.95"/>
			</g>
		</g>
		<path class="st3" d="M1334.51,1689.11c0,0,13.27,5.55,14.85,24.3c1.58,18.75,0,28.74,0,28.74l-16.02-7.62l-16.18,7.62v-29.31
			c0,0-0.59-23.73-22.67-23.73H1334.51z"/>
	</g>
	<g id="girl_2_3_">
		<path class="st9" d="M892.81,1058.27c0,0,32.59-10.75,57.64,19.39c25.05,30.14,61.76,70.86,52.23,82.38
			c-9.53,11.52-11.43,21.02,2.24,28.42c13.66,7.4,20.87,17.21,0.76,47.97c-13.13,20.08-15.93-6.65-55.79-5.33
			c-39.87,1.32-70.36-18.79-83.69-7.74C815.89,1265.08,823.21,1057.13,892.81,1058.27z"/>
		<path class="st19" d="M880.36,1212.13c0,0-91.61,43.33-109.24,42.56c-17.63-0.77-131.34-37.84-131.34-37.84l2.77,18.69
			c0,0,83.82,48.21,113.13,50.95c28.85,2.69,127.51-25.89,137.03-31.93C902.23,1248.52,908.04,1218.24,880.36,1212.13z"/>
		<path class="st10" d="M868.96,1254.6c8.53,5.92,19.22,10.8,32.65,13.89c50.32,11.63,69.61-30.91,76.85-60.1
			c-6.86-3.93-13.32-4.79-17.05-5.24c-3.64-0.43-7.46-0.71-10.63-0.87c-5.65-4.33-14.07-22.04-15.93-49.54l-2.37,0.63l-39.66,10.86
			c0,0,1.82,12.61,2.71,24.52c0.69,9.33,0.8,18.24-0.97,20.42c-3.09,0.67-4.95,1.11-4.95,1.11s0,0.01-0.02,0.04
			C889.05,1211.19,877.54,1230.11,868.96,1254.6z"/>
		<path class="st19" d="M892.81,1164.24c0,0,1.82,12.6,2.71,24.52c22.47-2.25,32.9-23.64,36.96-35.38L892.81,1164.24z"/>
		<path class="st10" d="M886.1,1176.07c0,0,53.33-2.94,50.99-36.13c-2.34-33.18,2.96-55.91-31.19-55.44
			c-34.15,0.48-39.87,13.61-41.78,24.87C862.21,1120.65,872.17,1175.98,886.1,1176.07z"/>
		<path class="st9" d="M864.39,1090.82c7.52-10.57,13.9-8.83,17.6-6.08c27.97-18.1,48.43,4.23,48.43,4.23
			c5.27,23.55,23.42,35.96,23.42,35.96s-9.28,6.69-32.08,2.54c-6.96-1.27-13.42-5.69-19.03-11.21
			c10.15,14.53,23.26,24.59,23.26,24.59c-27.62-10.44-41.03-46.86-42.38-50.71c-3.04,3.15-9,9.96-10.51,16.32
			c-2.05,8.64-10.89,22.15-16,21.92C857.1,1128.37,853.11,1106.67,864.39,1090.82z"/>
		<path class="st5" d="M864.76,1252.03c-2.88,25.7,1.4,37.04,28.06,96.4c22.52,50.17-3.04,95.34-3.04,95.34s54.79,44.05,94.13,61.1
			c21.86,9.49,38.96,10.62,39.23-8.77c0.3-21.94-10.01-49.61-18.65-75.4c-7.46-22.24-13.69-43.09-10.84-57.66
			c4.82-24.62,20.52-122.98,4.82-154.64c-5.64-11.38-27.77-12.4-52.05-11.4c-7.56,4.87-36.35,23.31-48.18,21.01
			c-0.13-0.02-0.35-0.08-0.66-0.15c-5.57-1.4-5.57-4.72-3.03-8.69c0.01-0.01-10.93,0.11-25.6,4.1
			c-16.7,4.55-32.54,16.94-32.54,16.94S847.86,1244.89,864.76,1252.03z"/>
		<path class="st17" d="M883.2,1559.7c-7.21-0.81-13.71-4.76-17.74-10.8c-0.64-0.96-1.32-1.99-2.05-3.09
			c-15.1-22.85-20.97-92.83-54.92-167.39c-8.27-18.15-37.96-21.41-46.05-41.93c0,0-19.92-66.5,38.13-68.47
			c58.06-1.96,155.49,185.05,157.03,204.66C959.1,1491.68,995.99,1572.43,883.2,1559.7z"/>
		<path class="st9" d="M652.44,1558.17h82.64c0,0,3.09-13.18-2.34-22.15c-4.8-7.93-2.96-12.46,0.59-19.02
			c-3.74,1.53-8.59,2.93-13.92,2.62c-4.12-0.24-8.47-2.11-12.29-4.32c-3.56,4.05-18.79,21.31-23.54,24.73
			C678.18,1543.91,654.1,1542.53,652.44,1558.17z"/>
		<path class="st17" d="M760.55,1287.25c-4.98,37.3-24.41,155.05-58.68,212.49c-11.05,18.52,27.84,28.9,28.05,28.85
			c5.22-1.36,13.91-9.68,17.91-13.29c27.83-25.08,84.32-96.1,84.32-153.03c0-27.76,0.49-80.78-19.7-94.26
			C800.02,1259.71,762.53,1272.43,760.55,1287.25z"/>
		<path class="st11" d="M817.06,1336.88c8.1,20.52,30.85,18.01,39.12,36.16c0.35,0.76,0.69,1.54,1.04,2.3
			c4.25,9.42,8.25,18.83,12.05,28.15c7.91,19.44,19.69,60.11,28.53,93.06c6.01,22.36,10.67,41.17,11.84,47.36
			c1.82,9.52,4.94,16.85,4.94,16.85c126.58,19.53,110.62-67.69,103.67-88.07c-6.33-18.62-116.65-210.87-174.71-208.9
			C785.49,1265.75,817.06,1336.88,817.06,1336.88z"/>
		<path class="st20" d="M713.1,1558.17h82.64c0,0,3.09-13.18-2.34-22.15c-4.8-7.93-2.96-12.46,0.59-19.02
			c-3.74,1.53-8.59,2.93-13.92,2.62c-4.12-0.24-8.47-2.11-12.29-4.32c-3.56,4.05-18.79,21.31-23.54,24.73
			C738.85,1543.91,714.77,1542.53,713.1,1558.17z"/>
		<path class="st20" d="M857.22,1375.34c4.25,9.42,8.25,18.83,12.05,28.15c7.91,19.44,19.69,60.11,28.53,93.06
			c0.07,0.14,0.15,0.27,0.22,0.41c32.91-51.32-14.51-148.54-14.51-148.54C872.21,1353.6,863.54,1363.23,857.22,1375.34z"/>
		<path class="st11" d="M808.79,1284.61c-4.98,37.3-11.98,157.69-46.26,215.14c-11.05,18.52,27.84,28.9,28.05,28.85
			c5.22-1.36,13.91-9.68,17.91-13.29c27.83-25.08,84.32-96.1,84.32-153.03c0-27.76-32.58-78.55-52.77-92.03
			C827.61,1261.94,810.77,1269.79,808.79,1284.61z"/>
		<g>
			<g>
				<polygon class="st4" points="625.16,1172.85 642.3,1141.94 655.74,1179.46 736.2,1252.79 657.49,1268.83 				"/>
				<polygon class="st3" points="720.52,1193.47 751.93,1289.36 657.49,1268.83 625.16,1172.85 				"/>
				<polygon class="st21" points="716.89,1191.21 629.04,1171.48 625.16,1172.85 716.25,1192.54 				"/>
				<polygon class="st22" points="716.89,1191.21 717.94,1192.91 716.25,1192.54 				"/>
			</g>
			<polygon class="st23" points="625.16,1172.85 643.69,1143.44 655.8,1177.49 629.04,1171.48 			"/>
		</g>
		<path class="st10" d="M692.43,1210.12c2.98-0.57,9.37-2.98,15.84-4.76c-1.93-1.5-4.08-3.34-4.68-5.23
			c-1.15-3.65-1.92-4.82,1.92-3.66c3.85,1.15,17.31,7.33,17.31,7.33s-0.03,0.01-0.03,0.02c7.65,2.23,14.69,13.04,14.69,13.04
			s94.68,33.28,106.07,33.85c17.62,0.88,134.91-42.31,134.91-42.31c27.68,6.11,21.47,40.12,11.95,46.16
			c-9.52,6.04-93.92,36.74-143.94,37.32c-25.33,0.29-117.49-58.94-117.49-58.94s-10.77-4.92-19.24-3.38
			c-8.46,1.54-28.08,0-32.32-6.92C673.19,1215.7,687.42,1211.08,692.43,1210.12z"/>
		<path class="st5" d="M918.03,1229.7c0,0,10.49,33.21,46.52,40.76c0,0,59.49-18.33,29.87-58.86
			C994.42,1211.6,965.13,1189.84,918.03,1229.7z"/>
		<path class="st10" d="M630.95,1212.62L630.95,1212.62c-0.02-0.91,0.08-1.82,0.32-2.69c0,0,8.49-13.42,11.27-13.97
			c8.47-1.67,8.47,9.47,6.67,16.67c-1.25,5.01-3.08,12.25-5.65,14.85l3.6,10.68C629.93,1231.12,630.95,1212.62,630.95,1212.62z"/>
		<path class="st11" d="M983.91,1504.86c21.86,9.49,38.96,10.62,39.23-8.77c0.3-21.94-10.01-49.61-18.65-75.4
			c0,0-11.9,8.21-37.52-10.58C946.75,1395.3,972.24,1471.85,983.91,1504.86z"/>
	</g>
	<g>
		<path class="st3" d="M501.68,1765.24c0,1.73,0.1,3.45,0.32,5.12c0.65,5.37,2.31,10.43,4.78,14.98c1.94,3.55,4.37,6.79,7.21,9.62
			c7.62,7.61,18.12,12.31,29.73,12.31h591.25c23.22,0,42.05-18.82,42.05-42.04c0-11.61-4.7-22.12-12.32-29.73
			c-7.61-7.62-18.12-12.32-29.73-12.32H543.72C520.5,1723.18,501.68,1742.01,501.68,1765.24z"/>
		<path class="st3" d="M546.78,1715.58h202.72c3.55,0,6.45-2.9,6.45-6.45l0,0c0-3.55-2.9-6.45-6.45-6.45H546.78
			c-3.55,0-6.45,2.9-6.45,6.45l0,0C540.32,1712.68,543.23,1715.58,546.78,1715.58z"/>
		
			<rect x="557.97" y="1715.58" transform="matrix(-1 -1.224647e-16 1.224647e-16 -1 1137.9175 3438.7693)" class="st4" width="21.97" height="7.61"/>
		<path class="st4" d="M506.78,1785.34c1.94,3.55,4.37,6.79,7.21,9.62c7.62,7.61,18.12,12.31,29.73,12.31h125.24v-21.93H506.78z"/>
		<path class="st14" d="M1255.28,1752.92v24.63c0,2.7-0.36,5.32-1.04,7.8c-3.42,12.64-14.96,21.93-28.68,21.93H609.67
			c-13.72,0-25.27-9.29-28.68-21.93c-0.67-2.48-1.04-5.1-1.04-7.8v-24.63c0-16.42,13.3-29.73,29.72-29.73h615.89
			C1241.98,1723.19,1255.28,1736.5,1255.28,1752.92z"/>
		<path class="st24" d="M1254.24,1785.34c-3.42,12.64-14.96,21.93-28.68,21.93H609.67c-13.72,0-25.27-9.29-28.68-21.93H1254.24z"/>
		<g>
			<path class="st1" d="M1194.11,1765.38c0,13.06,4.75,24.73,12.23,32.46c0.17,0.17,0.33,0.34,0.5,0.51
				c5.78,5.76,13.12,9.21,21.1,9.21c12.47,0,43.37-18.81,62.52-31.3c9.54-6.23,16.17-10.89,16.17-10.89s-6.63-4.66-16.17-10.88
				c-19.15-12.5-50.05-31.31-62.52-31.31c-3.61,0-7.08,0.71-10.35,2c-5.5,2.21-10.4,6.13-14.26,11.25
				c-4.26,5.62-7.29,12.71-8.56,20.58c-0.01,0.09-0.03,0.18-0.03,0.27C1194.33,1759.89,1194.11,1762.61,1194.11,1765.38z"/>
			<path class="st25" d="M1194.11,1765.38c0,13.06,4.75,24.73,12.23,32.46l94.79-32.61l-106.4-7.95
				C1194.33,1759.89,1194.11,1762.61,1194.11,1765.38z"/>
			<path class="st26" d="M1203.33,1736.44l94.56,25.82l-80.31-37.07C1212.09,1727.4,1207.19,1731.32,1203.33,1736.44z"/>
			<path class="st27" d="M1284.29,1765.38c0,5.02,2.57,9.3,6.17,10.89c9.54-6.23,16.17-10.89,16.17-10.89s-6.63-4.66-16.17-10.88
				C1286.87,1756.07,1284.29,1760.35,1284.29,1765.38z"/>
		</g>
	</g>
	<g>
		<path class="st10" d="M1944.4,1169.44c0,0-2.87-6.45-4.73-9.51c-1.86-3.06-9.8-12.01-11.15-9.98c-1.35,2.03-6.76,15.67-3.89,19.49
			c2.87,3.82-0.19,10.47,14.1,14.5L1944.4,1169.44z"/>
		<path class="st13" d="M2103.15,1128.69c0,0-73.13,61.04-101.64,55.39c-22.3-4.42-56.51-16.15-56.51-16.15l-6.84,17.5
			c0,0,30.69,41.63,62.68,41.9c50.01,0.43,86.96-21.65,86.96-21.65L2103.15,1128.69z"/>
		<path class="st28" d="M2231.39,1772.53c0,0-2.12,34.24-8.75,34.73c-0.88,0.07-33.6,0.07-33.6,0.07l-41.77-0.24
			c0,0,0.27-10.06,12.48-12.19c12.21-2.13,32.65-10.71,40.04-26.85C2207.58,1751.08,2231.39,1772.53,2231.39,1772.53z"/>
		<path class="st11" d="M2233.8,1774.91c0,0-12.7,4.25-22.61,4.25c-11.06,0-21.11-3.01-21.11-3.01s-2.39-23.12-15.55-74.06
			c-6.9-26.7-16.75-61.03-30.76-103.68c-38.74-117.89-50.53-186.86-51.6-193.39c-0.06-0.34-0.08-0.51-0.08-0.51l0.13-0.06
			l119.11-52.3c0,0-14.72,162.48,4.06,224.84c2.63,8.72,4.88,18.88,6.82,29.88C2234.08,1674.61,2233.8,1774.91,2233.8,1774.91z"/>
		<path class="st9" d="M2174.54,1702.09c-6.9-26.7-16.75-61.03-30.76-103.68c-38.74-117.89-50.53-186.86-51.6-193.39
			c0.01-0.19,0.02-0.38,0.05-0.57l119.11-52.3c0,0-14.72,162.48,4.06,224.84C2218.03,1585.71,2174.54,1702.09,2174.54,1702.09z"/>
		<path class="st28" d="M2138.36,1772.53c0,0-2.12,34.24-8.75,34.73c-0.88,0.07-33.6,0.07-33.6,0.07l-41.77-0.24
			c0,0,0.27-10.06,12.48-12.19c12.21-2.13,32.65-10.71,40.04-26.85C2114.55,1751.08,2138.36,1772.53,2138.36,1772.53z"/>
		<path class="st11" d="M2070.83,1355.98c0,0-1.55,105.29,16.67,234.56c18.22,129.28,12.04,184.15,12.04,184.15
			s12.51,4.06,17.57,4.47c12.87,1.05,26.06-3.02,26.06-3.02s26.07-129.32,18.6-194.03c-7.48-64.71,35.71-222.03,35.71-222.03
			L2070.83,1355.98z"/>
		<path class="st10" d="M2155.29,1109.59l-23.25,15.25l-21.18-5.99c-3.87-5.52-4.9-16.17-4.95-25.39
			c-0.06-9.15,0.83-16.91,0.83-16.91l31.37-13.85l11.71-5.16c-0.03,0.18-0.91,9.61-1.04,10.99
			C2146.59,1092.97,2155.29,1109.59,2155.29,1109.59z"/>
		<path class="st29" d="M2070.29,1385.25c28.94,27.94,138.47,23.24,145.22-7.54c6.74-30.79-7.36-262.08-56.8-276.6
			c-10.26-3.02-65.1,14.71-65.1,14.71s-8.61,22.51-14.25,51.17c-1.09,5.58-4.29,64.68-6.69,119.98c-1.12,25.86-2.06,50.9-2.54,69.22
			C2069.69,1373.36,2069.67,1384.64,2070.29,1385.25z"/>
		<path class="st30" d="M2146.43,1068.96c-6.37,10.76-28.69,20.18-40.52,24.49c-0.06-9.15,0.83-16.91,0.83-16.91l31.37-13.85
			C2145.04,1062.61,2149.26,1064.15,2146.43,1068.96z"/>
		<path class="st10" d="M2094.9,1074.63c0,0,50.54,15.77,59.88-15.86c9.33-31.63,22.14-50.89-9.73-62.3s-41.74-1.19-47.42,8.6
			C2091.95,1014.88,2082,1069.72,2094.9,1074.63z"/>
		<path class="st31" d="M2099.61,1002.03c0,0,3.22,36.8,10.83,35.21c7.61-1.6,15.99-5.02,14.88,6.08
			c-1.11,11.09,7.4,30.11,18.38,30.07c23.54-0.1,49.12-60.5,42.67-71.95C2167.78,968.39,2072.74,961.72,2099.61,1002.03z"/>
		<path class="st13" d="M2107.05,1101.9c0.65-0.27,37.63-16.86,41.95-15.43c4.32,1.43,9.71,14.63,9.71,14.63l-65.11,14.72
			C2093.61,1115.82,2098.73,1105.4,2107.05,1101.9z"/>
		<g>
			<path class="st32" d="M1876.86,1281.02l207.27,195.15c4.06,3.83,9.19,5.04,11.38,2.71l7-7.43c2.2-2.34,0.67-7.38-3.39-11.2
				l-207.27-195.15c-4.06-3.83-9.19-5.04-11.38-2.71l-7,7.43C1871.27,1272.15,1872.79,1277.19,1876.86,1281.02z"/>
			<path class="st3" d="M1993.17,1390.53l90.95,85.63c4.06,3.83,9.19,5.04,11.38,2.71l7-7.43c2.2-2.34,0.67-7.38-3.39-11.2
				l-90.95-85.63L1993.17,1390.53z"/>
			<path class="st32" d="M1887.4,1048.61c-61.47-65.35-164.28-68.47-229.62-6.99c-0.87,0.81-1.72,1.63-2.55,2.46
				c-62.88,61.73-65.13,162.68-4.46,227.17c61.48,65.34,164.29,68.48,229.64,7c21.39-20.13,36.13-44.69,44.09-70.91
				C1940.88,1153.47,1928.75,1092.56,1887.4,1048.61z M1871.62,1268.92c-38.03,35.79-89.84,47.8-137.13,36.61
				c-27.53-6.52-53.53-20.91-74.38-43.06c-56.63-60.19-53.74-154.88,6.45-211.5c22.16-20.85,48.98-33.62,76.88-38.45
				c47.87-8.29,98.85,6.87,134.62,44.9C1934.7,1117.6,1931.81,1212.29,1871.62,1268.92z"/>
			<g class="st33">
				<path class="st34" d="M1660.11,1262.46c20.85,22.16,46.85,36.54,74.38,43.07c47.28,11.19,99.09-0.83,137.13-36.61
					c60.19-56.62,63.07-151.32,6.44-211.51c-35.78-38.03-86.76-53.18-134.62-44.89c-27.9,4.82-54.73,17.6-76.88,38.44
					C1606.37,1107.58,1603.48,1202.27,1660.11,1262.46z"/>
			</g>
		</g>
		<path class="st13" d="M2070.13,1356.19c114.21-81.38,104.71-189.98,104.71-189.98c-41.74,23.54-83.16,75.6-102.17,120.75
			C2071.56,1312.83,2070.61,1337.86,2070.13,1356.19z"/>
		<g>
			<path class="st10" d="M1957.41,1319.13c-8.05-1.86-13.46-7.95-14.59-9.01c0,0-3.44,0.23,0.56,7.56c0.33,0.61,1.08,2.19,1.64,3.3
				c0.23,0.46-0.09,0.98-0.6,1.02c-4.65,0.35-9.32-1.49-18.27,0.38c-1.24,0.26-1.59,3.22-1.55,4.48c0.08,2.13-0.07,4.53,2.41,7.8
				c1.44,1.9,5.47,3.95,14.43,7.56c3.42,1.37,13.18,0.34,22.33-2.81l7.31-3.38l-2.27-13.59l-1.84,0.38
				C1964.07,1323.43,1960.45,1319.87,1957.41,1319.13z"/>
			<path class="st29" d="M2139.4,1115.82c0,0,102.62,19.54-30.19,168.14c-21.24,23.77-136,54.71-136,54.71s-11.64-9.9-5.77-17.92
				c0,0,79.01-57.38,96.4-66.5c7.82-4.1,30.35-91.58,43.1-112.65C2119.69,1120.54,2139.4,1115.82,2139.4,1115.82z"/>
		</g>
		<path class="st10" d="M1941.62,1171.25c0,0-3.36-6.41-4.01-9.8c-0.66-3.38-4.88-13.25-6.62-14.99c-0.7-0.7-3,0.2-3.27,3.19
			c-0.12,1.3,0.52,3.67,1.65,6.49c1.84,4.59,1.53,10.82,2.17,12.9C1933.13,1174.21,1941.62,1171.25,1941.62,1171.25z"/>
	</g>
	<g>
		<g>
			<path class="st35" d="M655.84,1645.84h496.64c24.27,0,43.94-19.67,43.94-43.94l0,0c0-24.27-19.67-43.94-43.94-43.94H655.84
				c-24.27,0-43.94,19.67-43.94,43.94l0,0C611.9,1626.17,631.57,1645.84,655.84,1645.84z"/>
			<path class="st5" d="M935.32,1590.16l-0.42,19.18c-0.37,16.96,18.15,30.94,41.36,31.21l310.32,3.62l0.08-3.82
				c-17.41-6.62-29.16-20.02-28.83-35.33l0.15-6.75c0.33-15.32,12.67-28.43,30.36-34.64l0-0.08l-310.32-3.62
				C954.81,1559.66,935.69,1573.2,935.32,1590.16z"/>
			<g>
				<path class="st36" d="M1294.7,1645.72H967.77c-21.09,0-37.6-19.29-37.6-43.91c0-24.62,16.52-43.91,37.6-43.91h326.92
					c2.71,0,4.92,1.61,4.92,3.59c0,1.98-2.2,3.59-4.92,3.59H967.77c-15.05,0-27.77,16.82-27.77,36.72s12.72,36.72,27.77,36.72
					h326.92c2.71,0,4.92,1.61,4.92,3.59C1299.62,1644.11,1297.41,1645.72,1294.7,1645.72z"/>
			</g>
			<g>
				<rect x="1027.45" y="1581.26" class="st18" width="236.06" height="0.61"/>
			</g>
			<g>
				<rect x="1152.79" y="1589.25" class="st18" width="106.73" height="0.61"/>
			</g>
			<g>
				<rect x="1073.33" y="1616.5" class="st18" width="186.19" height="0.61"/>
			</g>
		</g>
	</g>
	<path class="st27" d="M2534.59,1818.92H186.36c-2.05,0-3.73-1.68-3.73-3.73v-4.75c0-2.05,1.68-3.73,3.73-3.73h2348.22
		c2.05,0,3.73,1.68,3.73,3.73v4.75C2538.32,1817.25,2536.64,1818.92,2534.59,1818.92z"/>
</g>
</svg>
